<?xml version="1.0" encoding="utf-8"?><!DOCTYPE svg PUBLIC "-//W3C//DTD SVG 1.1//EN" "http://www.w3.org/Graphics/SVG/1.1/DTD/svg11.dtd"><svg version="1.1" xmlns="http://www.w3.org/2000/svg" xmlns:xlink="http://www.w3.org/1999/xlink" x="0px" y="0px" viewBox="0 0 100 107.46124999999999" enable-background="new 0 0 100 85.969" xml:space="preserve"><path fill="#010101" d="M98.1,34.498c0,0-48.046-31.411-49.888-32.614c-2.529-1.653-4.624-1.855-4.624-1.855L16.759,0
	c0,0-3.523,0.031-4.592,1.668C11.367,2.893,1.107,18.586,0.405,19.659c-1.069,1.636,0.315,4.875,0.315,4.875l10.79,24.564
	c0,0,1.042,1.848,3.555,3.49C17.247,54.014,64.952,85.2,64.952,85.2c2.044,1.338,4.072,0.913,5.41-1.132l28.869-44.161
	C100.569,37.862,100.145,35.834,98.1,34.498z M92.186,39.971L67.593,77.59c-0.669,1.022-1.683,1.234-2.706,0.565
	c0,0-45.132-29.505-46.614-30.474c-1.483-0.969-1.919-2.424-1.919-2.424L6.947,23.936c0,0-1.083-1.913-0.566-2.705
	c0.518-0.793,9.089-13.904,9.623-14.721c0.535-0.817,2.706-0.566,2.706-0.566l23.305,0.062c0,0,1.737-0.033,2.989,0.785
	c1.252,0.819,46.616,30.475,46.616,30.475C92.643,37.934,92.854,38.948,92.186,39.971z"/><path fill="#010101" d="M39.169,17.589c-5.42-3.542-12.687-2.022-16.229,3.398c-3.543,5.421-2.021,12.687,3.398,16.23
	c5.42,3.542,12.687,2.022,16.229-3.399C46.11,28.398,44.588,21.132,39.169,17.589z M40.114,32.214
	c-2.658,4.065-8.107,5.207-12.172,2.549c-4.065-2.657-5.206-8.106-2.549-12.172c2.658-4.064,8.107-5.206,12.172-2.548
	C41.63,22.699,42.771,28.15,40.114,32.214z"/></svg>
