<svg xmlns="http://www.w3.org/2000/svg" xmlns:xlink="http://www.w3.org/1999/xlink" version="1.1" x="0px" y="0px" viewBox="0 0 100 125" enable-background="new 0 0 100 100" xml:space="preserve"><path d="M90.374,7.196V2.494h-20.27V0H52.031v2.494h-4.152v4.701h2.686v89.568h-1.954V14.526h-6.079v-2.845h-5.639V8.23h-3.233v3.45  h-2.708v2.845H11.49v82.238H9.626V100h79.925v-3.236h-1.864V7.196H90.374z M32.005,24.291h4.11v4.11h-4.11V24.291z M32.005,32.309  h4.11v4.11h-4.11V32.309z M32.005,40.326h0.977h3.133v4.11h-3.133h-0.977h-8.017v-4.11H32.005z M36.115,48.343v4.11h-4.11v-4.11  H36.115z M23.987,52.453v-4.11h4.11v4.11H23.987z M28.097,56.361v4.11h-4.11v-4.11H28.097z M23.987,24.291h4.11v4.11h-4.11  L23.987,24.291z M15.97,24.291h4.11v4.11h-4.11V24.291z M15.97,32.309h3.133h0.977h8.017v4.11H20.08h-0.977H15.97V32.309z   M15.97,40.326h4.11v4.11h-4.11V40.326z M15.97,48.343h4.11v4.11h-4.11V48.343z M15.97,56.361h4.11v4.11h-4.11V56.361z   M15.97,72.396h4.11v4.11h-4.11V72.396z M20.08,92.54h-4.11v-4.11h4.11V92.54z M28.097,92.54h-4.11v-4.11h4.11V92.54z   M28.097,84.523h-3.133h-0.977H15.97v-4.11h8.017h0.977h3.133V84.523z M28.097,76.505h-4.11v-4.11h4.11V76.505z M36.115,92.54h-4.11  v-4.11h4.11V92.54z M36.115,84.523h-4.11v-4.11h4.11V84.523z M36.115,76.505h-4.11v-4.11h4.11V76.505z M44.132,92.54h-4.11v-4.11  h4.11V92.54z M44.132,84.523h-4.11v-4.11h4.11V84.523z M44.132,76.505h-4.11v-4.11h4.11V76.505z M44.132,68.488H15.97v-4.11h28.162  V68.488z M44.132,60.471h-3.133h-0.977h-8.017v-4.11h8.017h0.977h3.133V60.471z M44.132,52.453h-4.11v-4.11h4.11V52.453z   M44.132,44.436h-4.11v-4.11h4.11V44.436z M44.132,36.418h-4.11v-4.11h4.11V36.418z M44.132,28.401h-4.11v-4.11h4.11V28.401z   M55.046,24.291h4.11v4.11h-4.11V24.291z M55.046,40.326h4.11v4.11h-4.11V40.326z M55.046,56.361h4.11v4.11h-4.11V56.361z   M55.046,72.396h4.11v4.11h-4.11V72.396z M59.155,92.54h-4.11v-4.11h4.11V92.54z M67.173,92.54h-4.11v-4.11h4.11V92.54z   M75.19,92.54h-4.11v-4.11h4.11V92.54z M83.207,92.54h-4.11v-4.11h4.11V92.54z M83.207,84.523h-1.381h-2.728H64.04h-0.977h-8.017  v-4.11h8.017h0.977h15.058h2.728h1.381L83.207,84.523L83.207,84.523z M63.063,76.505v-4.11h4.11v4.11H63.063z M71.08,76.505v-4.11  h4.11v4.11H71.08z M83.207,76.505h-4.11v-4.11h4.11V76.505z M83.207,68.488H55.046v-4.11h28.162V68.488z M63.063,60.471v-4.11h4.11  v4.11H63.063z M83.207,60.471h-3.133h-0.977H71.08v-4.11h8.017h0.977h3.133V60.471z M83.207,52.453H59.155h-1.549h-2.56v-4.11h2.56  h1.549h24.052V52.453z M63.063,44.436v-4.11h8.017h0.977h3.133v4.11h-3.133H71.08H63.063z M83.207,44.436h-4.11v-4.11h4.11V44.436z   M83.207,36.418h-1.381h-2.728H59.155h-0.977h-3.133v-4.11h3.133h0.977h19.942h2.728h1.381L83.207,36.418L83.207,36.418z   M63.063,28.401v-4.11h4.11v4.11H63.063z M71.08,28.401v-4.11h4.11v4.11H71.08z M83.207,28.401h-4.11v-4.11h4.11V28.401z   M83.207,20.384h-1.381h-2.728H59.155h-0.977h-3.133v-4.11h3.133h0.977h19.942h2.728h1.381L83.207,20.384L83.207,20.384z"/></svg>
