<svg xmlns:dc="http://purl.org/dc/elements/1.1/" xmlns:cc="http://creativecommons.org/ns#" xmlns:rdf="http://www.w3.org/1999/02/22-rdf-syntax-ns#" xmlns:svg="http://www.w3.org/2000/svg" xmlns="http://www.w3.org/2000/svg" xmlns:sodipodi="http://sodipodi.sourceforge.net/DTD/sodipodi-0.dtd" xmlns:inkscape="http://www.inkscape.org/namespaces/inkscape" version="1.1" x="0px" y="0px" viewBox="0 0 100 125"><g transform="translate(0,-952.36218)"><g transform="matrix(0.6965761,0,0,0.6965761,-14.609853,267.62799)" style="" fill="#242424" fill-opacity="1"><path d="m 92.753472,1004.469 c -9.791742,0 -18.615284,1.3195 -25.092212,3.4677 -3.238473,1.0737 -5.909192,2.3443 -7.817674,3.8457 -1.908481,1.5014 -3.152288,3.2792 -3.152288,5.2958 0,2.0168 1.243807,3.8575 3.152288,5.3589 1.908482,1.5013 4.579201,2.7719 7.817674,3.8459 6.476928,2.1478 15.30047,3.4674 25.092212,3.4674 9.791768,0 18.615298,-1.3196 25.092208,-3.4674 3.23848,-1.074 5.9092,-2.3446 7.81768,-3.8459 1.90849,-1.5014 3.15229,-3.3421 3.15229,-5.3589 0,-2.0166 -1.2438,-3.7944 -3.15229,-5.2958 -1.90848,-1.5014 -4.5792,-2.772 -7.81768,-3.8457 -6.47691,-2.1482 -15.30044,-3.4677 -25.092208,-3.4677 z m 0,2.0174 c 9.612208,0 18.277088,1.2907 24.461768,3.3416 3.09234,1.0255 5.56033,2.2507 7.18722,3.5305 1.62687,1.28 2.39574,2.5192 2.39574,3.7197 0,1.2006 -0.76887,2.503 -2.39574,3.7828 -1.62689,1.2798 -4.09488,2.5049 -7.18722,3.5305 -6.18468,2.0511 -14.84956,3.3414 -24.461768,3.3414 -9.612209,0 -18.277076,-1.2903 -24.461753,-3.3414 -3.09235,-1.0256 -5.560334,-2.2507 -7.187218,-3.5305 -1.626882,-1.2798 -2.395738,-2.5822 -2.395738,-3.7828 0,-1.2005 0.768856,-2.4397 2.395738,-3.7197 1.626884,-1.2798 4.094868,-2.505 7.187218,-3.5305 6.184677,-2.0509 14.849544,-3.3416 24.461753,-3.3416 z" style="text-indent:0;text-transform:none;direction:ltr;block-progression:tb;baseline-shift:baseline;color:#000000;enable-background:accumulate;" fill="#242424" fill-opacity="1" stroke="none" marker="none" visibility="visible" display="inline" overflow="visible"/><path d="m 62.239325,1037.505 0,1.4501 c 8.87e-4,17.8736 0,36.3561 0,53.5257 0,1.9532 1.022209,3.7184 2.647923,5.233 1.625712,1.5146 3.933065,2.829 6.682849,3.9088 5.499569,2.1599 12.91724,3.4678 21.183375,3.4674 8.266148,0 15.762098,-1.3071 21.246418,-3.4674 2.74219,-1.0801 5.00012,-2.394 6.6198,-3.9088 1.61972,-1.5148 2.58489,-3.2814 2.58489,-5.233 -0.06,-17.3781 -0.0122,-35.6049 0,-53.4627 l 0.0629,-1.4499 -1.38701,0.5043 c -6.9025,2.6856 -17.39369,4.4132 -29.127142,4.4132 -11.746445,0 -22.203301,-1.7827 -29.127139,-4.4764 l -1.387007,-0.5043 z m 2.017465,2.7111 c 7.231339,2.5886 17.146653,4.287 28.496682,4.287 11.295388,0 21.221128,-1.5967 28.433638,-4.1609 -0.0141,17.43 -0.0585,35.1825 0,52.1386 0,1.2659 -0.60358,2.5195 -1.95442,3.7829 -1.35082,1.2635 -3.41084,2.4518 -5.98934,3.4675 -5.157,2.0314 -12.43663,3.3413 -20.489878,3.3413 -8.053253,0 -15.316587,-1.3094 -20.48987,-3.3413 -2.586652,-1.0158 -4.632704,-2.2037 -5.989349,-3.4675 -1.356644,-1.2638 -2.017463,-2.5188 -2.017463,-3.7829 0,-16.765 7.87e-4,-34.7852 0,-52.2647 z" style="text-indent:0;text-transform:none;direction:ltr;block-progression:tb;baseline-shift:baseline;color:#000000;enable-background:accumulate;" fill="#242424" fill-opacity="1" stroke="none" marker="none" visibility="visible" display="inline" overflow="visible"/><path d="m 57.636984,1016.7001 a 1.008833,1.008833 0 0 0 -0.882641,1.0087 c 0.0101,4.5722 0,9.91 0,14.1852 0,2.0172 1.17941,3.7938 3.089243,5.2958 1.909833,1.5021 4.577324,2.7708 7.817674,3.8458 6.480682,2.15 15.300335,3.4675 25.092212,3.4675 9.791888,0 18.625378,-1.3173 25.092208,-3.4675 3.23343,-1.075 5.91318,-2.3434 7.81768,-3.8458 1.90452,-1.5024 3.08925,-3.2801 3.08925,-5.2958 l 0,-0.062 c -0.1257,-4.2669 0,-9.5059 0,-14.1222 a 1.008833,1.008833 0 1 0 -2.01748,0 c 0,4.5794 -0.12809,9.8309 0,14.1852 0,1.2016 -0.70964,2.4393 -2.33267,3.7198 -1.62303,1.2803 -4.10025,2.5041 -7.18722,3.5306 -6.17395,2.0526 -14.84966,3.3413 -24.461768,3.3413 -9.612085,0 -18.273162,-1.2883 -24.461753,-3.3413 -3.094288,-1.0266 -5.558822,-2.2502 -7.187218,-3.5306 -1.628397,-1.2807 -2.332693,-2.5196 -2.332693,-3.7198 0,-4.2719 0.0101,-9.6066 0,-14.1852 a 1.008833,1.008833 0 0 0 -1.134824,-1.0087 z" style="text-indent:0;text-transform:none;direction:ltr;block-progression:tb;baseline-shift:baseline;color:#000000;enable-background:accumulate;" fill="#242424" fill-opacity="1" stroke="none" marker="none" visibility="visible" display="inline" overflow="visible"/><g style="" transform="matrix(1.9154708,-0.63335159,0.63335159,1.9154708,154.52045,-1309.9812)" fill="#242424" fill-opacity="1"><path transform="matrix(0.94944465,0.31393446,-0.31393446,0.94944465,21.00646,1068.3987)" d="m -395.28125,175.21875 c -1.10011,0.12995 -2.03208,0.64789 -2.46875,1.53125 -0.0789,0.15969 -0.11569,0.33026 -0.15625,0.5 l -1.09375,2.1875 0,0.0312 c -0.0143,0.009 -0.0601,0.0249 -0.125,0.15625 -0.45488,0.92021 -0.2845,1.99678 0.28125,2.9375 0.56575,0.94072 1.54577,1.81097 2.75,2.40625 1.20423,0.59528 2.41508,0.81336 3.5,0.6875 0.65212,-0.0756 1.26153,-0.29526 1.75,-0.65625 0.52177,0.51485 1.14795,0.9844 1.875,1.34375 1.20423,0.5953 2.41508,0.8134 3.5,0.6875 1.08488,-0.1257 2.07779,-0.6451 2.53125,-1.5625 0.0795,-0.1609 0.0978,-0.2617 0.125,-0.375 l 0.0312,-0.0937 0.46875,-0.9375 c 0.003,0.0275 -0.0224,0.0262 0,0.0937 0.32225,0.9746 1.21789,1.6337 2.28125,1.90625 1.06336,0.27255 2.34958,0.20297 3.625,-0.21875 1.27542,-0.42172 2.31589,-1.11734 3,-1.96875 0.68414,-0.85131 1.00875,-1.90343 0.6875,-2.875 -0.0564,-0.17043 -0.12734,-0.27524 -0.1875,-0.375 l -0.0312,-0.0937 -0.625,-1.84375 c -2.3e-4,-0.01 3.5e-4,-0.0214 0,-0.0312 -0.008,-0.23066 -0.0509,-0.46328 -0.125,-0.6875 -0.30935,-0.93558 -1.14746,-1.59306 -2.21875,-1.875 -0.29554,-0.0778 -0.61243,-0.13325 -0.9375,-0.15625 l 0.125,0.96875 c 0.137,0.021 0.27695,0.0597 0.40625,0.0937 0.82936,0.21837 1.42097,0.66421 1.625,1.28125 0.051,0.15426 0.0602,0.33732 0.0625,0.5 0.002,0.14266 -0.0282,0.29084 -0.0625,0.4375 -0.005,0.0206 0.006,0.0419 0,0.0625 -0.0193,0.0646 -0.0361,0.12211 -0.0625,0.1875 -0.008,0.022 -0.0224,0.0405 -0.0312,0.0625 -0.0571,0.13124 -0.13362,0.27353 -0.21875,0.40625 -0.098,0.15281 -0.20902,0.2852 -0.34375,0.4375 -0.25565,0.28892 -0.56646,0.59523 -0.9375,0.84375 -0.0186,0.0123 -0.0437,0.0191 -0.0625,0.0312 -0.39722,0.25851 -0.8679,0.48858 -1.375,0.65625 -0.77127,0.25502 -1.54296,0.35487 -2.21875,0.3125 -0.0331,-0.002 -0.0611,0.003 -0.0937,0 -0.23226,-0.0226 -0.48016,-0.0704 -0.6875,-0.125 -0.21479,-0.0566 -0.38989,-0.15839 -0.5625,-0.25 0.005,-0.0402 -0.003,-0.0845 0,-0.125 -0.36748,0.0344 -0.71214,0.0471 -1.0625,0.0312 -0.0288,0.13611 -0.0631,0.28099 -0.125,0.40625 -0.0657,0.1329 -0.15043,0.2656 -0.25,0.375 -0.01,0.011 -0.0213,0.0213 -0.0312,0.0312 -0.0582,0.058 -0.11853,0.10535 -0.1875,0.15625 -0.11889,0.088 -0.25715,0.1854 -0.40625,0.25 -0.1491,0.065 -0.32291,0.11635 -0.5,0.15625 -0.17709,0.04 -0.35963,0.0495 -0.5625,0.0625 -0.60857,0.041 -1.31561,-0.036 -2.03125,-0.28125 -0.23855,-0.082 -0.47935,-0.1942 -0.71875,-0.3125 -0.24274,-0.12 -0.47206,-0.2332 -0.6875,-0.375 -0.0195,-0.013 -0.0433,-0.0182 -0.0625,-0.0312 -0.2033,-0.1369 -0.3576,-0.286 -0.53125,-0.4375 -0.18469,-0.1579 -0.34952,-0.30045 -0.5,-0.46875 -0.13594,-0.1544 -0.23779,-0.30925 -0.34375,-0.46875 -0.0154,-0.023 -0.0477,-0.0405 -0.0625,-0.0625 -0.006,-0.01 0.006,-0.0232 0,-0.0312 -0.0154,-0.025 -0.0479,-0.0385 -0.0625,-0.0625 -0.0546,-0.092 -0.0812,-0.18985 -0.125,-0.28125 -0.0313,-0.065 -0.0682,-0.123 -0.0937,-0.1875 -0.0419,-0.10425 -0.0687,-0.20821 -0.0937,-0.3125 -0.44912,-0.0645 -0.90879,-0.15301 -1.375,-0.3125 -0.0452,-0.0154 -0.0803,-0.0463 -0.125,-0.0625 l -0.65625,1.3125 0,0.0312 c -0.0143,0.01 -0.0601,0.0249 -0.125,0.15625 -0.12313,0.24909 -0.18269,0.51504 -0.21875,0.78125 -0.43032,-0.0317 -0.88215,-0.092 -1.34375,-0.25 -0.23855,-0.0817 -0.47935,-0.19416 -0.71875,-0.3125 -0.24274,-0.11999 -0.47206,-0.23318 -0.6875,-0.375 -0.0195,-0.0128 -0.0433,-0.0183 -0.0625,-0.0312 -0.2033,-0.13693 -0.3576,-0.28601 -0.53125,-0.4375 -0.18469,-0.1579 -0.34952,-0.30052 -0.5,-0.46875 -0.13594,-0.1544 -0.23779,-0.30927 -0.34375,-0.46875 -0.0154,-0.0226 -0.0477,-0.0399 -0.0625,-0.0625 -0.006,-0.009 0.006,-0.0226 0,-0.0312 -0.0154,-0.0247 -0.0479,-0.0378 -0.0625,-0.0625 -0.0546,-0.0922 -0.0812,-0.18986 -0.125,-0.28125 -0.0313,-0.0652 -0.0682,-0.12305 -0.0937,-0.1875 -0.0584,-0.14545 -0.0952,-0.29654 -0.125,-0.4375 -0.0267,-0.13031 -0.0598,-0.2519 -0.0625,-0.375 -0.002,-0.1055 0.0156,-0.21178 0.0312,-0.3125 0.0249,-0.16077 0.053,-0.29185 0.125,-0.4375 0.288,-0.5826 0.9296,-0.96188 1.78125,-1.0625 0.0506,-0.006 0.10563,0.005 0.15625,0 -0.0821,-0.31595 -0.0671,-0.64728 -0.0312,-0.96875 -0.13664,0.006 -0.27872,-0.0149 -0.40625,0 z m -2.4375,3.9062 c 0.0759,0.18125 0.14595,0.35569 0.25,0.53125 0.0519,0.0876 0.12903,0.16416 0.1875,0.25 0.12333,0.18105 0.25508,0.35961 0.40625,0.53125 0.16446,0.19735 0.36491,0.37948 0.5625,0.5625 0.464,0.42978 0.96798,0.81567 1.59375,1.125 0.85214,0.42123 1.71342,0.60991 2.53125,0.65625 0.0102,5.8e-4 0.021,-5.4e-4 0.0312,0 0.086,0.39557 0.21425,0.78504 0.4375,1.15625 0.0593,0.0985 0.15063,0.18451 0.21875,0.28125 -0.30811,0.21613 -0.69395,0.38024 -1.1875,0.4375 -0.85237,0.0988 -1.9193,-0.075 -2.96875,-0.59375 -1.04945,-0.51877 -1.86632,-1.28942 -2.3125,-2.03125 -0.44613,-0.74192 -0.51983,-1.4229 -0.25,-1.96875 -0.0288,0.0583 -0.0245,0.0472 0.0625,-0.0937 l 0.0312,-0.0312 z m 23.65625,1.21875 0.21875,0.59375 0,0.0625 0.0312,0.0312 c 0.0762,0.13006 0.1376,0.22485 0.15625,0.28125 0.19216,0.58116 0.006,1.2373 -0.53125,1.90625 -0.53752,0.66886 -1.41976,1.31999 -2.53125,1.6875 -1.11149,0.36751 -2.22393,0.40241 -3.0625,0.1875 -0.8386,-0.215 -1.37135,-0.67188 -1.5625,-1.25 0.0204,0.0617 0.006,0.0365 -0.0312,-0.125 l 0,-0.0312 0,-0.0312 -0.25,-0.8125 c 0.007,-0.012 0.024,-0.019 0.0312,-0.0312 0.16217,0.0704 0.32148,0.14051 0.5,0.1875 0.0899,0.0237 0.18849,0.0437 0.28125,0.0625 0.01,0.002 0.0213,-0.002 0.0312,0 0.0606,0.0132 0.12563,0.0202 0.1875,0.0312 0.11506,0.0182 0.22509,0.0515 0.34375,0.0625 0.0208,0.002 0.0416,-0.002 0.0625,0 0.27233,0.0286 0.55586,0.0409 0.84375,0.0312 0.62842,-0.0209 1.27907,-0.12604 1.9375,-0.34375 0.99013,-0.32739 1.82543,-0.82743 2.46875,-1.4375 0.12428,-0.11063 0.23411,-0.22642 0.34375,-0.34375 0.0157,-0.0178 0.0163,-0.0443 0.0312,-0.0625 0.0684,-0.0752 0.15669,-0.14117 0.21875,-0.21875 0.11042,-0.13802 0.19215,-0.29254 0.28125,-0.4375 z m -16.53125,0.1563 c 0.0759,0.1812 0.14595,0.35575 0.25,0.53125 0.0519,0.088 0.12903,0.1642 0.1875,0.25 0.12333,0.1811 0.25508,0.35955 0.40625,0.53125 0.16446,0.1973 0.36491,0.3795 0.5625,0.5625 0.464,0.4298 0.96798,0.8157 1.59375,1.125 0.93776,0.4635 1.89249,0.6714 2.78125,0.6875 0.15704,0 0.31627,0.0422 0.46875,0.0312 0.053,0 0.1048,-0.0242 0.15625,-0.0312 0.0728,-0.01 0.14744,0.01 0.21875,0 0.19722,-0.023 0.37849,-0.077 0.5625,-0.125 l -0.3125,0.59375 -0.0312,0.0625 c -0.0371,0.1461 -0.0675,0.2593 -0.0937,0.3125 -0.27125,0.5488 -0.86634,0.9011 -1.71875,1 -0.85237,0.099 -1.9193,-0.0751 -2.96875,-0.59375 -1.04945,-0.5188 -1.86632,-1.28935 -2.3125,-2.03125 -0.44613,-0.7419 -0.51983,-1.42295 -0.25,-1.96875 -0.0288,0.058 -0.0245,0.0472 0.0625,-0.0937 L -391,181.3125 z" style="text-indent:0;text-transform:none;direction:ltr;block-progression:tb;baseline-shift:baseline;color:#000000;enable-background:accumulate;" fill="#242424" fill-opacity="1" stroke="none" marker="none" visibility="visible" display="inline" overflow="visible"/></g><g transform="matrix(2.0087015,-0.18783256,0.18783256,2.0087015,683.45837,-1247.4761)" style="" fill="#242424" fill-opacity="1"><path transform="matrix(0.99565646,0.09310329,-0.09310329,0.99565646,5.0443593,952.1642)" d="m -391.1875,198.90625 c -0.29245,0.0262 -0.57521,0.0885 -0.84375,0.15625 -1.07414,0.2708 -1.93101,0.91145 -2.25,1.84375 -0.0543,0.15858 -0.0744,0.30565 -0.0937,0.46875 l -0.8125,2.3125 0,0.0625 c -0.0131,0.01 -0.0464,0.0492 -0.0937,0.1875 -0.3323,0.9712 -0.0262,1.98395 0.65625,2.84375 0.68244,0.8598 1.76025,1.59635 3.03125,2.03125 1.27099,0.4348 2.5029,0.5149 3.5625,0.25 0.36607,-0.0915 0.72064,-0.26049 1.03125,-0.4375 0.26314,0.74594 0.87827,1.34794 1.65625,1.75 0.9752,0.50399 2.225,0.71882 3.5625,0.59375 1.3375,-0.12507 2.51744,-0.57362 3.375,-1.25 0.85757,-0.67628 1.40777,-1.60614 1.3125,-2.625 -0.0167,-0.17872 -0.0575,-0.29555 -0.0937,-0.40625 l 0,-0.0937 -0.21875,-2.03125 c 0.0388,-0.2161 0.0834,-0.43255 0.0625,-0.65625 -0.0917,-0.98112 -0.76918,-1.79758 -1.75,-2.3125 -0.73562,-0.38626 -1.67153,-0.61594 -2.65625,-0.65625 -0.32824,-0.0134 -0.66003,-4.9e-4 -1,0.0312 -0.88724,0.083 -1.67808,0.31724 -2.375,0.65625 -0.0619,-0.0934 -0.11668,-0.19083 -0.1875,-0.28125 -0.68305,-0.8722 -1.77024,-1.6203 -3.0625,-2.0625 -0.9692,-0.33157 -1.93516,-0.45359 -2.8125,-0.375 z m 0.21875,0.96875 c 0.69743,-0.0606 1.46646,0.0337 2.28125,0.3125 1.08636,0.3717 1.97119,0.98105 2.5,1.65625 0.52876,0.6752 0.71039,1.3851 0.5,2 -0.0331,0.0966 -0.0743,0.19348 -0.125,0.28125 -0.0147,0.0245 -0.0463,0.0387 -0.0625,0.0625 -0.0176,0.0271 -0.012,0.0676 -0.0312,0.0937 -0.13656,0.17668 -0.3118,0.33773 -0.53125,0.46875 -0.0269,0.0169 -0.0656,0.0151 -0.0937,0.0312 -0.26345,0.14389 -0.57657,0.27152 -0.9375,0.34375 -0.79751,0.1595 -1.77056,0.0958 -2.78125,-0.25 -0.27985,-0.0958 -0.56182,-0.187 -0.8125,-0.3125 -0.21883,-0.10932 -0.40234,-0.21624 -0.59375,-0.34375 -0.0196,-0.0128 -0.0432,-0.0183 -0.0625,-0.0312 -0.17684,-0.12113 -0.34932,-0.27313 -0.5,-0.40625 -0.0305,-0.0263 -0.0643,-0.0358 -0.0937,-0.0625 -0.13597,-0.12564 -0.23226,-0.24244 -0.34375,-0.375 -0.3585,-0.41907 -0.58112,-0.87375 -0.65625,-1.28125 -0.0271,-0.15908 -0.0161,-0.31557 0,-0.46875 0.003,-0.0325 -0.005,-0.0619 0,-0.0937 0.0141,-0.0856 0.0342,-0.16721 0.0625,-0.25 0.21039,-0.6149 0.76221,-1.07155 1.59375,-1.28125 0.20789,-0.0524 0.45502,-0.0736 0.6875,-0.0937 z m 9.15625,2 c 0.81585,0.0319 1.55552,0.23227 2.125,0.53125 0.7593,0.39874 1.22074,0.94667 1.28125,1.59375 0.0123,0.13156 -0.0107,0.27631 -0.0312,0.40625 -0.0195,0.10611 -0.0514,0.20734 -0.0937,0.3125 -0.0552,0.137 -0.12572,0.27303 -0.21875,0.40625 -0.093,0.13322 -0.21397,0.2793 -0.34375,0.40625 -0.12978,0.12695 -0.27206,0.25678 -0.4375,0.375 -0.48317,0.34517 -1.09936,0.64351 -1.8125,0.8125 -0.0194,0.005 -0.0429,-0.004 -0.0625,0 -0.24593,0.0556 -0.48411,0.10014 -0.75,0.125 -0.2696,0.0252 -0.55468,0.0389 -0.8125,0.0312 -0.0211,-6.3e-4 -0.0414,8.4e-4 -0.0625,0 -0.72054,-0.0288 -1.37199,-0.19746 -1.90625,-0.4375 -0.0209,-0.009 -0.042,-0.0216 -0.0625,-0.0312 -0.0227,-0.0107 -0.0403,-0.0203 -0.0625,-0.0312 -0.0197,-0.01 -0.0432,-0.0212 -0.0625,-0.0312 -0.0501,-0.0263 -0.0775,-0.066 -0.125,-0.0937 -0.0677,-0.0395 -0.1237,-0.0872 -0.1875,-0.125 L -385,204.8125 c 0.14103,-0.1952 0.264,-0.3919 0.34375,-0.625 0.23924,-0.69922 0.13273,-1.4568 -0.21875,-2.15625 0.0744,0.14085 0.13775,0.29293 0.1875,0.4375 0.57575,-0.28942 1.25626,-0.49003 2.03125,-0.5625 0.2858,-0.0267 0.5718,-0.042 0.84375,-0.0312 z m -12.15625,1.34375 c 0.10168,0.17773 0.21238,0.33229 0.34375,0.5 0.0482,0.0616 0.10427,0.1274 0.15625,0.1875 0.0184,0.0233 0.0428,0.0395 0.0625,0.0625 0.11603,0.12958 0.24225,0.25345 0.375,0.375 0.64257,0.61908 1.45328,1.16325 2.4375,1.5 1.0714,0.3666 2.12337,0.42422 3.0625,0.28125 0.0851,-0.0102 0.16702,-0.0171 0.25,-0.0312 0.01,-0.002 0.0213,0.002 0.0312,0 0.11465,-0.0203 0.23381,-0.0348 0.34375,-0.0625 0.17902,-0.0452 0.335,-0.12227 0.5,-0.1875 l -0.1875,0.625 -0.0312,0.0625 0,0.0312 c -0.0179,0.1497 -0.0433,0.2563 -0.0625,0.3125 -0.19815,0.5792 -0.72998,1.01065 -1.5625,1.21875 -0.83248,0.208 -1.92362,0.16015 -3.03125,-0.21875 -1.10763,-0.379 -2.0243,-1.04075 -2.5625,-1.71875 -0.53816,-0.6782 -0.69712,-1.33015 -0.5,-1.90625 -0.021,0.062 -0.005,0.0262 0.0625,-0.125 l 0.0312,0 0,-0.0312 0.28125,-0.875 z m 15.71875,2.875 0.0625,0.6875 0,0.0625 0,0.0312 c 0.0451,0.14383 0.0883,0.25336 0.0937,0.3125 0.057,0.60944 -0.26373,1.21856 -0.9375,1.75 -0.67378,0.53134 -1.67816,0.92226 -2.84375,1.03125 -1.16559,0.10899 -2.2622,-0.10258 -3.03125,-0.5 -0.75636,-0.39096 -1.18232,-0.90632 -1.25,-1.5 -0.0378,0.0445 -0.0832,0.084 -0.125,0.125 0.24668,-0.25888 0.44337,-0.55807 0.5625,-0.90625 0.004,-0.0128 -0.004,-0.019 0,-0.0312 0.0684,0.0359 0.14767,0.0608 0.21875,0.0937 0.0321,0.0172 0.06,0.0466 0.0937,0.0625 0.12296,0.0579 0.24432,0.10651 0.375,0.15625 0.0316,0.0111 0.0618,0.0207 0.0937,0.0312 0.009,0.003 0.0217,-0.003 0.0312,0 0.83585,0.29599 1.81585,0.43987 2.84375,0.34375 1.01583,-0.095 1.90204,-0.40943 2.65625,-0.84375 0.0199,-0.0114 0.0429,-0.0197 0.0625,-0.0312 0.0351,-0.0192 0.0595,-0.0427 0.0937,-0.0625 0.10077,-0.0624 0.21802,-0.12 0.3125,-0.1875 0.069,-0.0493 0.12664,-0.10084 0.1875,-0.15625 0.0609,-0.0554 0.13199,-0.097 0.1875,-0.15625 0.11329,-0.0955 0.21324,-0.20894 0.3125,-0.3125 z" style="text-indent:0;text-transform:none;direction:ltr;block-progression:tb;baseline-shift:baseline;color:#000000;enable-background:accumulate;" fill="#242424" fill-opacity="1" fill-rule="nonzero" stroke="none" marker="none" visibility="visible" display="inline" overflow="visible"/></g></g></g></svg>
