<svg xmlns="http://www.w3.org/2000/svg" xmlns:xlink="http://www.w3.org/1999/xlink" xmlns:sketch="http://www.bohemiancoding.com/sketch/ns" viewBox="0 0 60 75" version="1.1" x="0px" y="0px"><title>buildings-6</title><desc>Created with Sketch.</desc><g stroke="none" stroke-width="1" fill="none" fill-rule="evenodd" sketch:type="MSPage"><g sketch:type="MSLayerGroup" fill="#000000"><path d="M57.749,44 L2.25,44 C1.634,44 1.066,43.692 0.73,43.175 C0.395,42.659 0.344,42.014 0.594,41.451 L4.387,34 L55.613,34 L59.383,41.404 C59.656,42.014 59.605,42.659 59.269,43.175 C58.934,43.692 58.366,44 57.749,44 L57.749,44 Z M2.558,42 L57.444,42 L54.387,36 L5.613,36 L2.558,42 L2.558,42 Z" sketch:type="MSShapeGroup"/><path d="M4,10 L56,10 L56,36 L4,36 L4,10 Z M6,34 L54,34 L54,12 L6,12 L6,34 Z" sketch:type="MSShapeGroup"/><path d="M4,42 L56,42 L56,60 L4,60 L4,42 Z M6,58 L54,58 L54,44 L6,44 L6,58 Z" sketch:type="MSShapeGroup"/><path d="M57,12 L3,12 C2.448,12 2,11.552 2,11 C2,10.448 2.448,10 3,10 L57,10 C57.552,10 58,10.448 58,11 C58,11.552 57.552,12 57,12" sketch:type="MSShapeGroup"/><path d="M6,0 L54,0 L54,12 L6,12 L6,0 Z M8,10 L52,10 L52,2 L8,2 L8,10 Z" sketch:type="MSShapeGroup"/><path d="M13.02,9 L10.979,9 C9.888,9 9,8.112 9,7.021 L9,4.979 C9,3.888 9.888,3 10.979,3 L13.02,3 C14.112,3 15,3.888 15,4.979 L15,7.021 C15,8.112 14.112,9 13.02,9 L13.02,9 Z M13,4.979 L10.979,5 L11,7.021 L13,7 L13,4.979 L13,4.979 Z" sketch:type="MSShapeGroup"/><path d="M22.02,9 L19.979,9 C18.888,9 18,8.112 18,7.021 L18,4.979 C18,3.888 18.888,3 19.979,3 L22.02,3 C23.112,3 24,3.888 24,4.979 L24,7.021 C24,8.112 23.112,9 22.02,9 L22.02,9 Z M22,4.979 L19.979,5 L20,7.021 L22,7 L22,4.979 L22,4.979 Z" sketch:type="MSShapeGroup"/><path d="M31.02,9 L28.979,9 C27.888,9 27,8.112 27,7.021 L27,4.979 C27,3.888 27.888,3 28.979,3 L31.02,3 C32.112,3 33,3.888 33,4.979 L33,7.021 C33,8.112 32.112,9 31.02,9 L31.02,9 Z M31,4.979 L28.979,5 L29,7.021 L31,7 L31,4.979 L31,4.979 Z" sketch:type="MSShapeGroup"/><path d="M40.02,9 L37.979,9 C36.888,9 36,8.112 36,7.021 L36,4.979 C36,3.888 36.888,3 37.979,3 L40.02,3 C41.112,3 42,3.888 42,4.979 L42,7.021 C42,8.112 41.112,9 40.02,9 L40.02,9 Z M40,4.979 L37.979,5 L38,7.021 L40,7 L40,4.979 L40,4.979 Z" sketch:type="MSShapeGroup"/><path d="M49.02,9 L46.979,9 C45.888,9 45,8.112 45,7.021 L45,4.979 C45,3.888 45.888,3 46.979,3 L49.02,3 C50.112,3 51,3.888 51,4.979 L51,7.021 C51,8.112 50.112,9 49.02,9 L49.02,9 Z M49,4.979 L46.979,5 L47,7.021 L49,7 L49,4.979 L49,4.979 Z" sketch:type="MSShapeGroup"/><path d="M8,47 L21,47 L21,55 L8,55 L8,47 Z M10,53 L19,53 L19,49 L10,49 L10,53 Z" sketch:type="MSShapeGroup"/><path d="M39,47 L52,47 L52,55 L39,55 L39,47 Z M41,53 L50,53 L50,49 L41,49 L41,53 Z" sketch:type="MSShapeGroup"/><path d="M8,14 L21,14 L21,22 L8,22 L8,14 Z M10,20 L19,20 L19,16 L10,16 L10,20 Z" sketch:type="MSShapeGroup"/><path d="M23,14 L37,14 L37,22 L23,22 L23,14 Z M25,20 L35,20 L35,16 L25,16 L25,20 Z" sketch:type="MSShapeGroup"/><path d="M23,24 L37,24 L37,32 L23,32 L23,24 Z M25,30 L35,30 L35,26 L25,26 L25,30 Z" sketch:type="MSShapeGroup"/><path d="M39,14 L52,14 L52,22 L39,22 L39,14 Z M41,20 L50,20 L50,16 L41,16 L41,20 Z" sketch:type="MSShapeGroup"/><path d="M8,24 L21,24 L21,32 L8,32 L8,24 Z M10,30 L19,30 L19,26 L10,26 L10,30 Z" sketch:type="MSShapeGroup"/><path d="M39,24 L52,24 L52,32 L39,32 L39,24 Z M41,30 L50,30 L50,26 L41,26 L41,30 Z" sketch:type="MSShapeGroup"/><path d="M23,47 L37,47 L37,60 L23,60 L23,47 Z M25,58 L35,58 L35,49 L25,49 L25,58 Z" sketch:type="MSShapeGroup"/></g></g></svg>
