<svg width="100" height="125.00000000000001" xmlns="http://www.w3.org/2000/svg" xmlns:svg="http://www.w3.org/2000/svg">
 <g>
  <title>Layer 1</title>
  <path fill="black" id="svg_4" d="m63.986523,51.477148c0.2,-0.3 0.5,-0.6 0.7,-0.9c3.4,-4.4 5.4,-10 5.4,-15.1c0,-10.2 -8.3,-18.2 -18.9,-18.2s-18.9,8 -18.9,18.2c0,5.1 2,10.7 5.4,15.1c0.2,0.3 0.5,0.6 0.7,0.9c-10.5,2.9 -16.2,9.8 -16.2,20.2c0,7.9 3.1,16.8 8.3,23.9c5.8,7.9 13.1,12.2 20.6,12.2c7.5,0 14.8,-4.3 20.6,-12.2c5.2,-7.1 8.3,-16 8.3,-23.9c0.2,-10.4 -5.5,-17.3 -16,-20.2zm-28.9,-16c0,-8.6 7.1,-15.3 16.1,-15.3s16.1,6.7 16.1,15.4c0,10.9 -8.8,19.7 -16.1,19.7s-16.1,-8.9 -16.1,-19.8zm16.1,69.5c-11.7,0 -26.1,-15.4 -26.1,-33.3c0,-11.1 7.2,-16 15.7,-17.9c3.1,2.7 6.7,4.2 10.4,4.2c3.7,0 7.3,-1.5 10.5,-4.2c12.6,2.8 15.6,10.9 15.6,17.9c0,18 -14.4,33.3 -26.1,33.3z"/>
 </g>
</svg>